<mxfile host="Electron" agent="Mozilla/5.0 (Macintosh; Intel Mac OS X 10_15_7) AppleWebKit/537.36 (KHTML, like Gecko) draw.io/28.0.6 Chrome/138.0.7204.100 Electron/37.2.3 Safari/537.36" version="28.0.6">
  <diagram name="Page-1" id="MSaa-mH9MaB9M1fiBA18">
    <mxGraphModel dx="1106" dy="1004" grid="1" gridSize="10" guides="1" tooltips="1" connect="1" arrows="1" fold="1" page="1" pageScale="1" pageWidth="850" pageHeight="1100" math="0" shadow="0">
      <root>
        <mxCell id="0" />
        <mxCell id="1" parent="0" />
        <mxCell id="7yW3JbcLsS10eUoLvzNY-2" value="" style="shape=mxgraph.signs.healthcare.mental_health;html=1;pointerEvents=1;fillColor=#000000;strokeColor=none;verticalLabelPosition=bottom;verticalAlign=top;align=center;sketch=0;flipH=1;" parent="1" vertex="1">
          <mxGeometry x="40" y="100" width="84" height="98" as="geometry" />
        </mxCell>
        <mxCell id="7yW3JbcLsS10eUoLvzNY-3" value="Software Developer" style="text;html=1;align=center;verticalAlign=middle;whiteSpace=wrap;rounded=0;" parent="1" vertex="1">
          <mxGeometry x="52" y="220" width="60" height="30" as="geometry" />
        </mxCell>
        <mxCell id="7yW3JbcLsS10eUoLvzNY-4" value="AI Expert" style="text;html=1;align=center;verticalAlign=middle;whiteSpace=wrap;rounded=0;" parent="1" vertex="1">
          <mxGeometry x="722" y="220" width="60" height="30" as="geometry" />
        </mxCell>
        <mxCell id="7yW3JbcLsS10eUoLvzNY-5" value="" style="shape=flexArrow;endArrow=classic;startArrow=classic;html=1;rounded=0;" parent="1" edge="1">
          <mxGeometry width="100" height="100" relative="1" as="geometry">
            <mxPoint x="144" y="250" as="sourcePoint" />
            <mxPoint x="694" y="250" as="targetPoint" />
          </mxGeometry>
        </mxCell>
        <mxCell id="7yW3JbcLsS10eUoLvzNY-35" value="" style="shape=image;verticalLabelPosition=bottom;labelBackgroundColor=default;verticalAlign=top;aspect=fixed;imageAspect=0;image=data:image/png,iVBORw0KGgoAAAANSUhEUgAAAo8AAAGKCAYAAABttatVAAAAAXNSR0IArs4c6QAAAERlWElmTU0AKgAAAAgAAYdpAAQAAAABAAAAGgAAAAAAA6ABAAMAAAABAAEAAKACAAQAAAABAAACj6ADAAQAAAABAAABigAAAAAKNJclAABAAElEQVR4Ae2dCZzV4/7Hv3eaZqaZ9o2SFgrJkqRFaUEuXclFJEvxT7hZipQkobik0LXEpSRbJZfKlWsp6SpLJaQrooQibTPNPs3M//d5pt84TeecOcvznPktn+f1mjnn/M7v9/19n/fz/X2f73nWP5VaSZhIgARIgARIgARIgARIIAICyThn69atEZwa+SlZWVmSkpIiaWlpkV8UwZm7d++WWrVqSXKyUjuCKyI7ZeXKldK1a9fITo7wrH379snevXulXr16EV4R2WkFBQWCv9q1a0d2QYRn5ebmqjPT09MjvCKy03788Udp0qSJsofIrojsLFO2sGPHDmnYsGFkSkR4lilbKCwsVM9uy5YtI9QkstNM2UI8fqG4uFig14cffijXX3+9bNmypTwzgbYwbdo0WbFihXTv3l1q1qwp/fv3l/r165efG+7NO++8I1dddZUMGjRIvvnmG1mzZo106NBBjjnmGHVZnz595KyzzgonotLvTNkC/UIZ+kBbqLQwojiBfkHU8wdkuuuIePxCuCI0ZQuMF0SaNm0qKgrDG50pIyNDUlNTtQePCEYRNOkOHqGrbgaoJPBQRFpxRcoflUR+fr7UqVMn0ksiOi8nJ0edh7LTmX799VdlCwggdSZTtgDbaty4sU5VxZQtbNu2TbHVbbumbEGHX9i8ebMqm8A8B9rC9u3bZdWqVXLEEUfIhg0bZOLEifLyyy/LBRdcUGmZDhkyRAWPL730krRv316dj6AVn3UlU7ZAv1BWQoG2oKvMIId+QcTJfiFYWZuyBcYLZbSTgkHnMRIgARJwI4Hhw4fL6tWr5fnnn5ePP/5YevfuLQ888EBUWfnggw/kiy++UNfgFZ+ZSIAESIAE/iDA4PEPFnxHAiTgcgLoqgocdtCpU6eocoQh4HffffcB11T8fMCX/EACJEACPiTA4NGHhc4sk4CXCGCs4vvvv6+y9Nhjj6kxiwgC169fL3PnzpWBAwdGnF20Mi5btuyA8/GZrY8HIOEHEiABnxNg8OhzA2D2ScBNBP70pz8dpO6MGTNk5syZ6vi9994rGAuKMcHt2rWTRo0ayeDBgw+6JtQBdHMHS2x9DEaFx0iABPxKgMGjX0ue+SYBFxLAbGdMOglMaF20J7VgosvXX38ta9euVTPRly9fLg0aNAg8PeR7u3UxKSlJzj33XHUeXvGZrY8hsfELEiABHxJg8OjDQmeWScDrBDDbOtoZ/nbrIibajBo1SiHCKz6fcsopYn/vdXbMHwmQAAlURoDBY2WE+D0JkIDnCaxbt06NlURGESgGJnxGAIn1H3EeEwmQAAn4nYDe1bb9TpP5JwEScCWB4447TvA3bNiwoPqj6zrUd0Ev4EESIAES8DABtjx6uHCZNRIgARIgARIgARLQTYDBo26ilEcCJOBaAsFmc7s2M1ScBEiABAwRYPBoCCzFkgAJkAAJkAAJkIAXCTB49GKpMk8kQAIkQAIkQAIkYIgAg0dDYCmWBEiABEiABEiABLxIgMGjF0uVeSIBEoiJALY1ZCIBEiABEghPgMFjeD78lgRIgARIgARIgARIIIAAg8cAGHxLAiTgbwKcbe3v8mfuSYAEIiPA4DEyTjyLBEiABEiABEiABEjAIsDgkWZAAiRAAiRAAiRAAiQQMQEGjxGj4okkQAIkQAIkQAIkQAJqb+t9+/ZpJ4FZi7rlQqYJucXFxa7R1RQDyEXSXWaQZ//pNDKTHHQzMKWrzdWEviZsATLBwoS+uuQWFRXJRx99JPPmzVPmitfk5GTp3Lmz+hzvP1O2YFIu8qy7zEzari5bCCxrUzJNyDXJ1oQtQKYJDpBpQi7jBVE+UQWPWVlZgc9J3O8BF044KUlvwyYeCuiqe1B7bm6ukht3xgME2Earm21JSYngT7dclBlSYWFhQC7if5uTkyN79+6VjIyM+IUFSDBlC+Cgm60pWwBX8NWtrylbcItfWLhwoTz55JPK2vBas2ZNadu2bYD1xf7WlC3QL5SVCf2CKH9Lv1D2gwe+kfGC/nihfv36ooJHvNGZMjMzJTU1VdLS0nSKlV27dknt2rVV1KtTcK1atUQ3A9uJ6ZZbUFAg+fn5UqdOHZ0IVBACgbqDPOhZr1497XxN2cL27du162rSFvLy8rTri4rHhC24wS+gogHT0047Tfr16yeLFi2SM888U5svM2kL9AtirI6gXxBjdYQb/IJyiPv/MV4oA6G3aTCQMN+TAAmQgAsJ4EcvKggkvOr+EexCJFSZBEiABA4gwODxABz8QAIkQAIkQAIkQAIkEI4Ag8dwdPgdCZAACZAACZAACZDAAQQYPB6Agx9IgAT8TAATWphIgARIgATCE2DwGJ4PvyUBEiABEiABEiABEgggwOAxAAbfkgAJ+JuA7mU9/E2TuScBEvAqAQaPXi1Z5osESIAESIAESIAEDBBg8GgAKkWSAAmQAAmQAAmQgFcJMHj0askyXyRAAiRAAiRAAiRggACDRwNQKZIESMCdBDjb2p3lRq1JgAQSS4DBY2J5824kQAIkQAIkQAIk4GoCDB5dXXxUngRIQCcBzrbWSZOySIAEvEqAwaNXS5b5IgESIAESIAESIAEDBBg8GoBKkSRAAiRAAiRAAiTgVQIMHr1asswXCZAACZAACZAACRggwODRAFSKJAEScCcBzrZ2Z7lRaxIggcQSYPCYWN68GwmQAAmQAAmQAAm4mgCDR1cXH5UnARLQSYCzrXXSpCwSIAGvEmDw6NWSZb5IgARIgARIgARIwAABBo8GoFIkCZAACZAACZAACXiVQDIytmfPHq35Ky4uFvzl5+drlbtv3z7Zu3ev6O5ays7O1s4AA++hr262JSUlgj8TclFYRUVFWssM5ZWeni41atTQKteULZgoM1O2kJmZqZ4Ht9iCW/zCnXfeKZMnT1b22qdPHxk9erSMGjVKi/2asgX6hbLioV8QoV8wawuMF0Tq1q0rKnhE5a4z5ebmSmpqqlSrVk2nWBWMQVfdwSN01c0AlYQdOOmEYAfluvUtKChQaoKFzpSWlqYCR936opIwYQv4waNbV1O2gIAcfHXra8oW3OAXkPf3339fLrjgApk7d6567datmzbGpmyBfqHMa9EviPK39AvCeMF6JEz5BTxtKnhMSUkpe/I0/c/Ly1MBnm65SUlJKiBNTlZqa9JWpHr16qJbVzgx6KtbLio3E3LtFkfd+tpsdcs1ZQsm2JqyBTC1+Wp7GCxBpmzBLX7hnHPOUcEigsfrr79eevbsqQ2vKVugXygrIvoFUXUO/YKoehINWIwX9McheNo45lFbtUBBJEACbiegu1fD7TyoPwmQAAkEI8DgMRgVHiMBEiABEiABEiABEghKgMFjUCw8SAIkQAIkQAIkQAIkEIwAg8dgVHiMBEiABEiABEiABEggKAEGj0Gx8CAJkIAfCWA2NBMJkAAJkEB4Agwew/PhtyRAAiRAAiRAAiRAAgEEGDwGwOBbEiABfxPgbGt/lz9zTwIkEBkBBo+RceJZJEACJEACJEACJEACFgEGjzQDEiABEiABEiABEiCBiAkweIwYFU8kARIgARIgARIgARJg8EgbIAESIIH9BDjbmqZAAiRAApUTYPBYOSOeQQIkQAIkQAIkQAIksJ8Ag0eaAgmQAAnsJ8DZ1jQFEiABEqicAIPHyhnxDBIgARIgARIgARIggf0EGDzSFEiABEiABEiABEiABCImwOAxYlQ8kQRIgARIgARIgARIgMEjbYAESIAE9hPgbGuaAgmQAAlUTiAZpwQOEredZ+AxnBPt8by8PFx2gGx8jlYOzwe1P7ilpaWVHdj/Xxef7OxsJTHectelT2VyGjRoYITDb7/95ioOHTt2NMLBbfZQvXp1IxxsobqeC1N65ufnu8puTz75ZButeq3seY+U/86dO13FwZQfW7Vqlas41KhRw4g9FBUVuYKDW/S0n1NAVS2POGD/2SVof7Zfozm+Z88e+/RyubHIwTV2wns4BkCueNyW7aTj0NN2ZMhDoI7x6IlKAnxteYF87GPxyA+UoUPO6tWrZevWrbaa5Xrb97G/sD/br5UdD7QFHXpGel/7PPu1Mj1xnm0LeG8n+3r7NdbjqCRsGbrk24EjdAqUHa982C1+VMYrJ1Anm5vtF+zv7OP2Z/u1suP4Hud+8MEH9qnq1b7efrW/tD/br5UdD7QFXGMn+3r71SnHYQsm7MH2C07Lbyh98KMS39nJPs9+jfU4/JgtQ5d8E/4Wutm2oEvPQDm2X8CxwOP2Z/s1Gs4m6l/osWjRovIyi0YfXfmKRo4dL+jWE/JUy2NhYaEtW8urXdC65ZaUlAj+dMuFQ9ctEyBN6AqZ4KtbX9sgdcu12eqWa8oWTLA1ZQtgavPV8uDuF2LKFiDXBF/dtvDuu+/KCy+8oGjMmDFDMe7Ro4c2xPQLUm639Av66zP6hbJHVbdfsB2ACZ8L2W7yCykpKWXBY05Ojs1Fy2txcbECUbGrIV7hkItfP7rlFhQUiG4GqCShr1vkwnCR8GDoTPhFmZubq52DKVtwU5mBK/jqtjFTtgC2kK37+dVtC++991558IggskmTJlKxmzXWZ4R+oYwc/UJZC7cJf0O/UGZjuv2C/cwzXhApDx7r1atnc9HympmZKampqVJxfF68wnft2iW1a9eW5GTVYBqvuPLra9asKboZ7Nu3T7KysrTLheGiKbpOnTrl+ut4YwcgGRkZOsSVy0B51a1bVzsHU7aA4NkttgA7QEWhW19TtuAWv/Dggw9K3759pVevXqr7umfPnuX2HO8b+oUygvQLIqZsgX6hzMZM1RGMF8r4crZ1vLUBrycBEvAMAbQMMpEACZAACYQnwOAxPB9+SwIkQAIkQAIkQAIkEECAwWMADL4lARLwNwHd4zH9TZO5JwES8CoBBo9eLVnmiwRIgARIgARIgAQMEGDwaAAqRZIACZAACZAACZCAVwkwePRqyTJfJEACJEACJEACJGCAAINHA1ApkgRIwJ0EONvaneVGrUmABBJLgMFjYnnzbiRAAiRAAiRAAiTgagIMHl1dfFSeBEhAJwHOttZJk7JIgAS8SoDBo1dLlvkiARIgARIgARIgAQMEGDwagEqRJEACJEACJEACJOBVAgwevVqyzBcJkAAJkAAJkAAJGCDA4NEAVIokARJwJwHOtnZnuVFrEiCBxBJg8JhY3rwbCZAACZAACZAACbiaAINHVxcflScBEtBJgLOtddKkLBIgAa8SYPDo1ZJlvkiABEiABEiABEjAAAEGjwagUiQJkAAJkAAJkAAJeJUAg0evlizzRQIkQAIkQAIkQAIGCDB4NACVIkmABNxJgLOt3Vlu1JoESCCxBBg8JpY370YCJOBwAvv27ZOCggKlJV7xmYkESIAESOAPAsl4u2vXrj+OaHhXXFysHG5ubq4GaX+IKCoqkqysrD8OaHq3d+9e7QygGvTVzRYtIyUlJdrlQiaSXWmqDxr+ZWZmSlpamqSmpmqQ9ocIU7aAQEF3mUFrE7awe/duAV/d+pqyBTf4hQYNGsjo0aNl8uTJytj+/Oc/q89jxoz5w/jifGfCFugXygqFfkGEfsGsLTBeEKlfv76o4LFWrVpxusMDL8/JyVHBQnKyEn/gl3F8QkVZs2ZN0b2cRo0aNUQ3AzhzBLq65dqtIhkZGXGQPPhSO2jUHeSlp6erMtPNwZQtoPLRraspW8jOzhbYgW59TdmCW/xC3759VUD+7LPPytChQwWfdTE2ZQv0C2U+jX5BhH7BrC0wXijjq6K76tWrHxxNxHEEwR3+dMtNSkoS/OkOSiFPt65w5tBVt1y0CplgW1hYqEpct76QZ//FYVIHXWrKFkywNWUL4GrCdk3Zglv8Qs+ePZW9IXi8/PLLxf58kBHGcMCULdAvlBUG/YIof0u/IKr+ZbxgJl7A08YxjzFUALyEBEiABEiABEiABPxKgMGjX0ue+SYBEjiIALqVmUiABEiABMITYPAYng+/JQESIAESIAESIAESCCDA4DEABt+SAAn4mwDGZTKRAAmQAAmEJ8DgMTwffksCJEACJEACJEACJBBAgMFjAAy+JQESIAESIAESIAESCE+AwWN4PvyWBEiABEiABEiABEgggACDxwAYfEsCJOBvApxt7e/yZ+5JgAQiI8DgMTJOPIsESIAESIAESIAESMAiwOCRZkACJEAC+wlwtjVNgQRIgAQqJ8DgsXJGPIMESIAESIAESIAESGA/AQaPNAUSIAESIAESIAESIIGICTB4jBgVTyQBEjBFYNeuXbJkyRJ57LHHZN++feW3efrpp2Xjxo3ln/mGBEiABEig6gkweKz6MqAGJOB7Aj///LN88sknctNNN8mCBQsUj5KSEpkyZYpMnTo1YXw42zphqHkjEiABFxNg8OjiwqPqJOAVAieccIKMHTtWunbtKq+++qrKVlJSkixatEhatGjhlWwyHyRAAiTgCQIMHj1RjMwECXiDwMUXXyyLFy8u77pet26dXHLJJQnLHGdbJww1b0QCJOBiAgweXVx4VJ0EvEbgrLPOkqysLPn0009V1rZs2SKtWrXyWjaZHxIgARJwNQEGj64uPipPAt4icOyxx0rjxo1l9erV8vbbb0u/fv1iymBmZqbcd999MV3Li0iABEiABMITYPAYng+/JQESSDCBbt26yeeffy4//vijtGnTJuq7Y+Y2xk9OmDAh6mt5AQmQAAmQQOUEknHKr7/+WvmZUZyBbqeUlBRJS0uL4qrKT929e7fk5uZKcrJSu/ILIjyjsLBQOwMsN7J3716BbJ2poKBA8JeXl6dTrOIKgenp6VrlIv8m+JqyhR07dghm+epMpmzBFFs8Y0i6bSFSv3DMMcfIjBkz5Pbbb4/ouQy0BczYPv/885X+mHATqW/76aefZOHChdKzZ0/p0qWLQCbSsGHDpF69esqX9ejRQ8477zxp1qyZ+i6Wf6ZsgX6hrDQCbSGW8gl1Df2CGKsjIvULocom1HFTtmCiPnObXzj00EPlT9bSFKWrVq0KxT+m49nZ2VK9enVJTU2N6fpQF6ErKiMjQ3vw+N1338XUwhFKTxyHMeTk5EidOnXCnRb1d3bAULNmzaivDXeBHYzWqFEj3GlRf4cAGnaAHxM6kylbQKtV/fr1dapq1BYQNNSqVUurvqZsIVK/8K9//Us9N2eccUZE+Qq0heLiYvXDCkHkuHHj5OOPPy6XgR8FK1askA8++EBWrlwp27dvL/8u1jfoYkewefrpp8upp54qlU24oV8oI02/YLaO8KJfiPYZDfQL0V4b7nzGCyIdO3YU1YSHNzoTCg0Bg+6WR1TstWvX1h48onVCNwNUEvhFpTsQgVPIz8/XHpQi0EVCcK4zrVmzRpo0aaL+dMo1ZQsIKBAQ6EymbGHbtm2ydetWOfnkk3Wqq370QKBuW4jELyBwRXA3atSoiPMUzBbwnCB9//338sgjj6g1JG2BCPD69u0rZ555pgr4OnToUO5T8B3Wely2bJn06tVL6YLWyMCE8sSYTASi7777rmqxRKulnTp37iwjRoyQgQMH2ofKX03ZAv1CGeJgtlAOP4439AtSpX4hlqIzZQuMF8pKg2MeY7FKXkMCJKCNwJ49e+Srr76SoqIimTZtmgwfPjxm2ZAxadIkOfvsswWtkAjgIP/RRx9VXdEIDNEC+eabb6oAr1OnTuWBY6Q3xbAZBIgjR46Ut956SwWbkIv7QH90l1166aWqFRLBKBY6xw8+JhIgARLwCgEGj14pSeaDBFxK4OWXX5YTTzxRrr76ajXGMJahE5CBoRwYHjF+/Hjp3bu3YMwjgrpvvvlGbr75Zqlbt65RQhiigh1yNmzYoO6L7q3LL79c7rrrLkGe0JILPZlIgARIwO0EGDy6vQSpPwm4nMC1114rX3/9tbzwwgtRDfNAC9+NN94oDRo0kMGDB6uAEd3UCBjHjBlT6fhD09hat26t8oQJSD/88INgDCf0hL4DBgxQLZWmdaB8EiABEjBBgMGjCaqUSQIkEDGBatWqSdu2bSM+Hy2JWDgc44kxIWb69OmqyxtbGR5xxBFKTmUTV0LdDIGniQR9MS4S3epPPvmkzJ8/X83ibtmypaxfv97ELSmTBEiABIwRYPBoDC0FkwAJ6CSwdu1a1TWNQBOrOXz77bfy2WefCbY0rJiwUw0mpzgxYbtFuzsd4yfbtWunZsx/8cUXTlSXOpEACZDAQQQYPB6EhAdIgAScRABjBzFe8aSTTpLjjjtOfvvtNxU4xrKAeGX5irXFsjK5wb4/+uijZePGjSo/2Fmnffv2Kp84xkQCJEACTibA4NHJpUPdSMDHBLAWIJYhOuqoowSL0iJoRDe17qWUqhox8oN1KZE/5BNBMZYPwlJfTCRAAiTgRAIMHp1YKtSJBHxOALOWsaYruqoxxhF/XgsaKxYx8od8Ygwk8m3P3q54Hj+TAAmQQFUTYPBY1SXA+5MACZQTwALh6Dp+7LHHZMGCBWqtRnTv+ilhTCfWonz99dcVB/BYunSpnxAwryRAAg4nwODR4QVE9UjADwSwiDbWesT6jFdccYWaUIJ9pBOdTM22jiUf2KMb+oAHtj8EH3vnnFjk8RoSIAES0EWAwaMukpRDAiQQE4F58+apRbS//PJL2bx5s8yePTsmOV69CDzABXyw5esbb7zh1awyXyRAAi4hwODRJQVFNUnAawSwlM7xxx8vWLrmnnvuUa1sLVq0qNJsJnK2dTQZBRe0QoLTVVddpbg5dSmiaPLFc0mABNxJgMGjO8uNWpOAqwlgDB/Waly3bp388ssvags/V2coQcpjq8Off/5ZcQO/JUuWJOjOvA0JkAAJ/EGAweMfLPiOBEggAQSw3zPG8P3tb39TrWlNmzZNwF29cwvskY1WSPDDlocYE8lEAiRAAokkwOAxkbR5LxLwMQHsRY2Fvl966SVZtWqVPPHEEz6mEX/WwQ877Lz44otqLCT4MpEACZBAIggweEwEZd6DBHxO4O2331b7UWMRbOzvjMW/nZicNNs6Ej4dO3ZUPJs0aaL4vvXWW5FcxnNIgARIIC4CDB7jwseLSYAEKiNwww03yDnnnCOjRo2SxYsXC/ZzZtJHADw3bdokt956q/zlL38R8GYiARIgAZME6MVN0qVsEvAxASx0ffjhh8vWrVtl+fLlaoaw03FgtrXbWh9tpuPHj5f+/ftLjx491HI+P/30k1pw3f6eryRAAiSgiwCDR10kKYcESKCcAGZQN2vWTH3etWuX1KtXTzIzM8u/5xszBE477TTB2EfwTkpKUoE7urSZSIAESEAnAXZb66RJWSRAAvLhhx+qwPG4445TrXgIZNyU9u7dKzt27FAq4xWf3ZTq1q2ruGMNTcxkR6svEwmQAAnoJKBaHnfu3KlTptqPtrCwUHJycrTKxUD7PXv2aO+KycrKEt0M0PWFRXx1y0VXIP50LxAMmUjYJk5nQnmlpqZKSkqKTrFqkoAJW4CN6S4zU7aAFj0w0K1vPLYwc+ZMGT16tAwbNkzuv//+A3QrLi4WN/iFiRMnykMPPaTs9aKLLpLbbrtNxowZo8V+TdlCML+AtTTHjRunurGRHywuHm2KxxbC3Yt+QVSAb6KOcKJfCGcLbvELdh4YL4g0aNBAVPCIX6o6U3Z2tgoWdAcMcDi1a9dW3TE69cW6aboZwOnCyHTLRXCDAK9WrVo6EUheXp6SV6NGDa1yoWedOnW0czBlC2hp0l1mpmwBZYYfaLr1jdUWrrvuOnn22WfV9oKDBg06yI7c4BdQma9Zs0b9AH744YfllltukQEDBmhjbMoWQvkFLOfTrVs3ufLKK+Xbb7+V6dOnH1Qu4Q7EagvhZOI7+gVRjQAm6gin+YXKbMENfiEwD4wXymio4LFatWqBbLS8x8Bz3XIh04Rc6KlbV7QwmNAVlZsJuZCJpJuDzVa3XOhrioNuXU3Zgkm20dpChw4d5PPPP1frN4ZbhsdUmemUe8opp0hubq4geDzvvPMEn3UlU7YQzi9gEfG2bduqfGB9TQTHkSZwRdL9TJi0XZ22YHMyIdOULZhka8IWINMEX8g0Idfma9uGjldTthDOL8SrN8c8xkuQ15OAjwnA6aE7FIEjts0LFzi6ARMqGy8mrAeJSUwoJwSTdne0F/PKPJEACZgnwNnW5hnzDiTgSQLoHrvjjjtk1qxZqqVO95AHT0Krwkxh8gy6CGvWrKnGLP39738XllkVFghvTQIuJsDg0cWFR9VJoKoIYGzoo48+Kv/4xz9UK5ZXW+yqiq+p+2K8FiYoVK9eXfB+xIgR0qhRI1O3o1wSIAGPEmC3tUcLltkiAVMEtmzZogKO2bNnq0CEgaMp0mbkYv1HBJAov8aNGwsWE2ciARIggWgIMHiMhhbPJQGfE9iwYYO0aNFCunbtKggivZYwhtMvCUFjly5dpHnz5oJyZSIBEiCBSAkweIyUFM8jAZ8TWLt2rRxzzDFqBvKKFSt8TsMb2V+5cqVccsklqlxRvkwkQAIkEAkBjnmMhBLPIQGfE/j000+lc+fOamY1FgL3akIXvJ9aH1GOc+bMURNnTjrpJEEwidZIJhIgARIIR4DBYzg6/I4ESEDQyoiFpm+88UY1QYZIvEfgueeeU7OwMRwB2xl2797de5lkjkiABLQRYPCoDSUFkYD3CPz+++8qcLz55pvV7Grv5ZA5sgk89thjsnXrVjnttNPU7li6d7Gy78NXEiAB9xPgmEf3lyFzQAJGCGA3EszGRcKyPEzeJ/Daa6+pTGIb2E8++cT7GWYOSYAEYiLA4DEmbLyIBLxNAFvYYVu+wYMH+2oMoN/GOwazYjAYOXKkGvuIsa5MJEACJFCRALutKxLhZxLwOQFsYdejRw+54YYbBF2ZTP4jgH29sS/u6aefzjGQ/it+5pgEKiXA4LFSRDyBBPxDYP369WrMG1oc/Rg4+nG2dSjrxu5BWVlZyh6+/vprOfbYY0OdyuMkQAI+I8Dg0WcFzuySQCgC33//vbRr104GDBggTzzxRKjTeNxHBGAH2MMcdrFx40Y58sgjfZR7ZpUESCAUAQaPocjwOAn4iMC2bdukdevWcvbZZwuWbWEiAZsA1vVECyTsA7OxmzRpYn/FVxIgAZ8S4IQZnxY8s00CNgEEBk2bNlUTZBYvXmwf5isJlBOAXXTs2FHZCeyFiQRIwN8EGDz6u/yZe58TyM/Plzp16sill14qnFkrvppZHq3pf/bZZ3L44YfL1KlTBXbDRAIk4F8C7Lb2b9kz5z4nUFJSoralu+6662T69Ok+p8HsR0Jgy5YtUr16ddmzZ4888sgjkpTE9odIuPEcEvAaAQaPXitR5ocEIiRQr149ueWWW2TKlCkRXuH90zjbuvIyLiwsVEEjJtL885//rPwCnkECJOA5Aip4hBPQmdCigT/dcouLi6WoqEj96dS3oKBAu67QD/rqZoAFfE2whUwk3fqiewsydcs1ZQsm2IKrCVsAU5sv7hFNwgLgCBxvuummg7ogTdkC5Jrgq9sW5syZI88884zCee+998o111wj/fv3jwZv2HNN2EKi/cKuXbukfv36kpmZKbNmzQqb32Bf2nZLv6C/jojHLwQrK/uY3/2CzYHxgqgeKxU8IiDTmeDIIBO/4nUmyMWvXt1y7cpHt642BzfItR0DdNaZsNAw/kzYmAlbcFOZxcr2yiuvFKzbt2jRIqlWrdpBZWPKFmy2up9fyNVpC+iaxXqXSHjFZ132C11tDjqfM1NyQ9kC7OaHH36QI444QlCZzp49O6rsxGq7ld1Ety3Y93NTmZliG8oWbEaxvtpsne4X7PwxXggIHrGPqc6EX6OpqamSlpamU6wKQjIyMiQ5WW9ve3p6uuhmgAcYRqZbLhw1frXrlpuTk6PKCnx1ppo1a0qtWrW06wu+JmzBBFtTtoAy27t3b1Rsx44dKwsWLJBvv/1WWrVqFbSoTdmCW/zC6NGjpXPnztKrVy9BK2TPnj2DcorloClbqAq/AB/03XffSZs2beSBBx6Q+++/P2Ik9Aui6jMTdUQsfiGSgvO7X7AZMV4oI6E3CrPp8pUESMBxBJ599llVya9cuVJV+I5T0AEKoRWEKXICWPsR9tS1a1fVCjl06NDIL+aZJEACriXAqXKuLToqTgKRE3jvvffU2L358+dLly5dIr+QZ5JAJQRgT6+99pqyL9gZEwmQgPcJMHj0fhkzhz4n8L///U/69OkjDz/8sFx44YU+pxE++7rHXYW/m3e+veCCC5R9wc5gb0wkQALeJsBua2+XL3PncwI7d+6UY489VtCdOHLkSJ/TYPZNEoB9YYIR7G3Hjh3SoEEDk7ejbBIggSokwOCxCuHz1iRgkgBmCDds2FBtO2gvPWPyfpRNArAzTDo788wzZdWqVWo2P6mQAAl4jwC7rb1XpswRCSgC9iLg3HaQBpFIAi+88IKsW7dORo0alcjb8l4kQAIJJMCWxwTC5q1IIFEEevfuLVhaI5rlUxKlm5Pvw9nWekoHtofl2tauXStLly7VI5RSSIAEHEOALY+OKQoqQgJ6CKDF54MPPpCtW7eqClyPVEohgcgJpKSkKPuDHd52222RX8gzSYAEXEGALY+uKCYqSQKREXjxxRdl6tSpsnr1amnSpElkF/GscgKYbc3Wx3Iccb2B/cEOTz75ZDnxxBPl8ssvj0seLyYBEnAOAbY8OqcsqAkJxEXgk08+kSuuuELmzZsnHTp0iEsWLyYBHQRgh7BH2CXsk4kESMAbBBg8eqMcmQufE8A2hYMGDZIpU6bIgAEDfE6D2XcSAdjjuHHj1OL0GErBRAIk4H4CDB7dX4bMgc8JYL9k7DN85JFHyq233upzGsy+EwlMmjRJLd9z2GGHqT2dnagjdSIBEoicAIPHyFnxTBJwJIFmzZrJ2LFj5Z133nGkfm5SiuMdzZXWu+++KxkZGXL77bebuwklkwAJJIQAJ8wkBDNvQgJmCGBm9W+//Sbjx483cwNKJQGNBH7//XdJT0+XNWvWyEsvvaRRMkWRAAkkkgBbHhNJm/ciAY0Enn76abUkzw8//CA1atTQKNm/ori3tdmyh53CXrH2I+yXiQRIwJ0EGDy6s9yotc8JLFmyRO655x558sknpVWrVj6nwey7iQDsdfr06cp+33//fTepTl1JgAT2E2DwSFMgAZcR+Pnnn+WMM86Qu+++Wzp16uQy7akuCYiyW9gv9sD+6aefiIQESMBlBBg8uqzAqK6/CRQWFsrhhx8u/fv3l2HDhvkbBnPvagKwX9hx8+bNBXbNRAIk4B4CDB7dU1bUlASkadOmaru3N954gzQMEOBsawNQw4iEHdeqVUutFhDmNH5FAiTgMAKcbe2wAqE6JBCKwMCBA2Xnzp1qrFioc3g8fgLbt29XkzogCZM72rZtK40bN45fMCUEJYDVAjAD+5dffpE5c+YEPYcHSYAEnEVABY9YPkFnKi4uloKCAsGuFzoTFkPevXu3TpFKVmZmpuhmAMHQV7dctIyUlJRo7+aBTKTc3Fz1qusfyislJUWSk/X+TjFlC0VFRdrLDCzjtYVZs2bJ3Llz1RZv2dnZgj8EkuCr28ZM2YIb/AKCRCx/hJ16kK6++mr1efTo0eqzjn/x2kIwHdzuF7B1YefOndU+2EOGDAmWxYiO+c0vBINCv1BGxZQtMF4QadSokagavUGDBsFsMOZjCBpTU1NV0BCzkCAXoqKsU6eOJCXp7W1Ht4luBqiAYWT16tULkpPYD2FsEAJz6Kwz2UEjWgB0JpQXGOjma8oWduzYoV3XeG1h9erVguBl4cKF0rFjx/LigS3k5eVp19eULbjFLyB4qVmzppqQhEkdF110kTbG8dpCeeFXeON2vwD/sGjRIunXr5/06tVLBZEVshjRRz/5hVBA6BfKyJiyBcYLZXxV8Kg7GLONWrdcew023XIhT7dMVBLQV7dcUwxMybXZuoUDbFe3rvHYAoJZzKhGEIOKNTC5ka0Jvrptt127dgLuSAhk8FlXiscWwumgm4F9L1Nyg9nuueeeq+wc9o7W9IYNG9pqRPxqSl8o4CS/EA5IMLbhzo/0O5NsoYNuvqb0tflGyi2S89zmF1R5RZIxnkMCJFA1BNA90KNHD5kwYULVKMC7kkACCcDOu3fvrrrFEnhb3ooESCBKAnr7f6O8OU8nARIITaBbt27qy2XLloU+id9oJcDZ1lpxxiRs+fLl6jrb/mMSwotIgASMEmDwaBQvhZNAbATuuusuWbFihZoUE5sEXkUC7iWASR+wfzwHTCRAAs4joMY8Ok8takQC/iWwePFimThxoppZXb9+ff+CqIKcY5wUWx+rAHyFW8Lu7RnYXbt2lXPOOafCGfxIAiRQlQTY8liV9HlvEqhA4Mcff5S+ffvKE088wa0HK7DhR38RwMQZPAd4HvBcMJEACTiHAFsenVMW1MTnBLAuWcuWLeXCCy+Uv/3tbz6nweyTgKjnAGMg8VywRZgWQQLOIcCWR+eUBTXxOYGjjz5axo8fL/Pnz/c5CWafBP4g8Morr6gdaLB4OxMJkIAzCLDl0RnlQC18TuCGG25QW+Hp3MnE50hjyj5bt2LCZvwibGGIxZnz8/Pl8ccfN34/3oAESCA8AbY8hufDb0nAOAG0NGJs15dffql2NjF+Q96ABFxGADv+4PnAc8KWeZcVHtX1JAEGj54sVmbKLQQ2btwoAwYMEOxdffzxx7tFbc/qae9K4dkMujhjeD6ef/559bzguWEiARKoOgLstq469ryzzwlgj/I2bdrIlVdeKYMHD/Y5DWafBCongGflvffeU88NurBTU1Mrv4hnkAAJaCfAlkftSCmQBCIj0KpVKxk3bpxqTYnsCp5FAiQwe/Zsady4sdoHmzRIgASqhgBbHquGO+/qcwJjxoxRg/+xGDgTCZBAdASw7mONGjVk9+7d8tRTT0V3Mc8mARKImwCDx7gRUgAJREdgzpw5MnnyZPnmm2+EY+yiY2f6bM62Nk1Yj/y0tDT1/BxzzDHSq1cvGThwoB7BlEICJBARAXZbR4SJJ5GAHgIbNmyQSy+9VF5++WXBuo5MJEACsRHA84PnCM8TnismEiCBxBFgy2PiWPNOPieQl5cnaCkZOnSoqvB8jsOR2efe1o4slpBKIXBcsmSJeq5yc3NDnscvSIAE9BJgy6NenpRGAiEJHHnkkTJ27Fh55plnQp7DL0iABKIjgOepWbNmct9990V3Ic8mARKImQBbHmNGxwtJIHICN910k2zbtk0mTJgQ+UU8kwRIICICWPcR4yC3bNkiM2fOjOgankQCJBA7AbY8xs6OV5JARAQwQeall15S47K4Ll1EyHgSCURFAM8Vxj2+8MILgueNiQRIwCwB1fKoe6xISUmJ7Nu3T3TLLS4uFiysXFhYqJUKFpvVrStmbUJf3XLB1oRcyETSrS/G+UGmbrmmbAF8der67bffyhVXXCHPPvus6lrTKRuyTNiuKVtwg1/IycmR5557rnz5F+w1ft1118kll1yixefQL5RhNOEX0HWN5wzP23HHHSdHHXWUljKDEN1+ATJN2QL9AuiKqicZL5iJF9LT00UFj3gwdCY8FLpl2vpBru7lTUzoC5lIujnY8uxXm0u8r6b0hVwTfG22TrYFBHYnnXSSXHXVVXLeeedptwWbq5tsQbeutt1Dri5byM7OVusHQjbWEcRnXXqbes5s/exXm0u8r6b0hVzbfuPVMfB6PGdDhgxRz93vv/+uurIDv4/1vQldTbKFHbjJFnTrapcz5OryC7ZMN9mCzdV+tfOg41UFj9h0XmfKzMyUlJQUbQ+urRtaHLEwbHKy3qGakKmbAVpei4qKtMvFLykYr2590eKClJGRYePW8opfKJCpW19TtoBf7bp0bd26tdx+++2ChcCzsrK0ybULBlzBV5e+tlxTtuAGv4CKBs/XCSecoNYPxGSMnj172mjifqVfKENo0i+gzDAD+9FHH5VJkybFXWYQoNMv2AqZsgX6hTLCpuoIxgtlfPVGYfZTwVcS8DkBtDb+9ttv3ELN53bA7FcNAQwXwQSarVu3cgJN1RQB7+pxApww4/ECZvYSTwCTY2bNmiWYAcoJMonnzzuSAJ47PH8Yv4rnkYkESEAvAQaPenlSms8JrF+/Xi6//HKZP3++YF1HJhIggaohgOcPzyGeRzyXTCRAAvoIMHjUx5KSfE4AYwXbtWsnw4cPlwsvvNDnNNyZfXsSgzu1p9YVCeA5xPOI59Iey1vxHH4mARKIngCDx+iZ8QoSCEqgefPmMmbMGHn88ceDfs+DJEACiSeA5xGtkA8++GDib847koBHCXDCjEcLltlKLAGsLbdr1y41szqxd+bddBKwZ1vrlElZVU/gf//7n1oBZNOmTWoh8arXiBqQgLsJsOXR3eVH7R1AYPbs2fLiiy8KKqbq1as7QCOqQAIkEEgAz+XmzZvVc4rJbEwkQALxEWDwGB8/Xu1zAl988YUMHjxYFi5cKC1btvQ5DWafBJxLoEWLFuo5xTJaeG6ZSIAEYifA4DF2drzS5wSw6HX79u3ltttuk379+vmcBrNPAs4ngOcUzyue2z179jhfYWpIAg4lwODRoQVDtZxPoEmTJmonksmTJztfWWoYEQHOto4Ik6tPwvPau3dv6dixo6vzQeVJoCoJMHisSvq8t2sJYA/dvLw8+fzzz12bBypOAn4l8N5778n333+v9pz3KwPmmwTiIcDgMR56vNaXBKZNmyaLFi2Sn3/+WZKS+Ah5yQgw25rJ+wTw3OL5xXOM55mJBEggOgKs+aLjxbN9TmDFihUyYsQIeffdd+Wwww7zOQ1mnwTcSwDPL55jPM94rplIgAQiJ8DgMXJWPNPnBLZv3y7dunVTazmeeeaZPqfB7JOA+wngOZ44caJ6rvF8M5EACURGgMFjZJx4FgnIIYccIj169JA777yTNEiABDxCAM8znms835ww5ZFCZTaME2DwaBwxb+AFApdddpmcdtppsmzZMi9kh3kIQYDBQwgwHj9sP9ecge3xgmb2tBFg8KgNJQV5lcDo0aPl5ZdflgULFng1i8wXCfieALYXXbNmjeB5ZyIBEghPgHtbh+fDb31OAAHjQw89JKtWrZJ69er5nIb3s8+9rb1fxqFyiOcbzzlaHzG2uX///qFO5XES8D0BBo++NwECCEVg48aNcv7558tzzz0nJ598cqjTeDxBBLC0CraBxDIr5557rjRr1uygO+fm5sorr7xywPFTTz1V2rZte8AxfiCBYATwnON5x3P/3XffSevWrYOdxmMk4HsCDB59bwIEEIwAgpA2bdrI1VdfLUOGDAl2Co8lkMCWLVvk+OOPl06dOsm+ffvknnvukZUrVx60n/g333wjN954o5x00knl2tWtWzei4BH3QFq+fLl8+eWX6j1e7bU8sTdy8+bN1XH+8y4BPO8ffvihev5zcnIkPT3du5llzkggRgJ/sgaIl7755psxXh78Mjxw1atXl5SUlOAnxHh079696kGuVq1ajBKCX7Zz505p0KBB8C9jPFpcXCwIQGrVqhWjhOCXFRUVSWFhoWRkZAQ/Icaj+fn56sq0tLQYJQS/DGWWmprqGlvAfrcINi688EI5++yz5ZprrgmesSiOmrIF2EFBQYF2GzNlC/H4halTp0pWVpYKGjGp5dZbb5WuXbvKgAEDJNAvoNJ/++235f7774+ihMpOxbjWiq2WgUIuvfRSGTRoUOChqN+bsgX6hbKiCLSFqAunwgUIIs844wy54oor1D7Y8As6kylb8JNfCFceOm0h8D6MF0T1/KiWR3QB6UyZmZkqYNAdiGBAc+3atSU5WW+DKYJn3QzQOoLKrn79+jrRqmABlXudOnW0ykXFjqQ7KMUAdOwBjT+dyZQtYK03VBpwwK+99poWWzNlC9u2bZOtW7dq71I3ZQvx+IWxY8fKzTffXP6cvvPOO4L847kNtIUvvvhCGjduLF999ZUKqhHwRfrDsF27djJ06FBlppBzyy23yMMPPywnnniiOtaqVSvBXzzJlC3gRwT9ghxgC/GUE6799ddfVSMIgpBZs2Ypu4pXZuD1pmzBT34hkGfF94F+oeJ38XxmvFBGT28UFk+J8FoScACBxx9/XBYvXizowtT9I8UB2XOlCmhpxPjTpk2bluuPIQX/+c9/yj/bb3DeRx99pHb/2bBhg4waNUrNlL/gggvsU0K+BgaHdu9Ghw4dpGfPniGv4RfeJYDnH34AQxUee+wxtZi4d3PLnJFAdAS4VE90vHi2hwlgqzLsNoGuz8MPP9zDOXVX1jADGsM/srOzyxVHQNmoUaPyz/ab4cOHy+rVq+X555+Xjz/+WHr37i0PPPCA/XWlr9zbulJEvjoBfgD+YNKkSWorQ19lnpklgTAEGDyGgcOv/EPgxx9/lLPOOktVElgMnMlZBE455RT54YcfypXatGmTnHDCCeWf7Te7d++Whg0b2h/VBJvyD3xDAjEQgD+47777lH+An2AiARIQYfBIK/A9gby8PDVrF5MvdEyQ8T1QAwAwy3rmzJmC4BAtQZjYggkzSBj/+P7776v36F7EpBa0TK5fv17mzp0rAwcOVN/xHwnESgBjYeEfWrZsKfAXTCTgdwIMHv1uAcy/Wvx75MiRMm/ePNJwKIERI0aockJXda9evaRPnz5qFizUnTFjhgos8f7ee+9VE2kwoQwTYHD+4MGD8RUTCcRFAP4B9oRlophIwO8EOGHG7xbg8/yjqxozVR988EGfk3B29hEMfvLJJ2riDFZcwIxqO6F1EceQ2rdvL19//bXq4q5Ro0bUs/zRYslEAqEIYHUDLEOHVSTQ4s1EAn4lwJZHv5Y8861aEDBJxq4QiMT5BLDjR2DgGErjI444IurAMZQsHicBmwBmYMNfwG+wBdKmwlc/EmDLox9LnXmW119/Xe6++261S4nuNSiJ170EuLe1e8suUZrDX2B3I4y5xaStv/71r4m6Ne9DAo4hwJZHxxQFFUkUAWw5h3X/MFauS5cuibot70MCJOARAvAb8B/wI/ZWlh7JGrNBAhERYMtjRJh4klcIYNcB7Bhy0003qX2rvZIv5oMESCCxBLDvPXYigj/BlnW6dxNLbG54NxKIjgBbHqPjxbNdTAB7yWKrOqwZOG3aNBfnhKqTAAk4gQD8SMeOHZVfgX9hIgG/EGDw6JeSZj7VBIrbb79dPv30U9IggaAEONs6KBYeDEPgs88+UwHk3//+9zBn8SsS8BYBdlt7qzyZmxAE+vXrJ7///ruMHz8+xBk8TAIkQAKxEVi2bJlkZGTIqlWr5I033ohNCK8iARcRYMujiwqLqsZGYMKECfLmm28KthZLT0+PTQiv8gUB7m3ti2LWnkn4FfiXBQsWCPwNEwl4nQBbHr1ewj7PH7axw64jH330kTRv3tznNJh9EiABUwTgX+BnunXrJsccc4xceumlpm5FuSRQ5QTY8ljlRUAFTBHAWmzY53j27Nly6qmnmroN5ZIACZCAIgA/A38DvwP/w0QCXiXAlkevlqzP87V582YVMI4bN658D2SfI2H2SYAEEkDgiiuukA0bNij/88MPP0irVq0ScFfeggQSS4DBY2J5824JIFBYWCjnnHOODB8+XCZNmpSAO/IWXiHA2dZeKcmqzQf8zldffSXYJjMzM7N87/Wq1Yp3JwF9BNhtrY8lJTmAQElJiaSmpkr37t3l8ccfd4BGVIEESMCPBDB5Bq2OjzzyiMAvMZGAlwiw5dFLpcm8qF0ebrnlFpk6dSppkEDUBLi3ddTIeEEYAui2hk1hmTD+mA0Dil+5joAKHrOzs7UqjpX2i4qKZN++fdrl5ufna5UJYXl5eaKbAeSCg2656FYzIdf+Zaxb39zcXMnJydHOAQwq2sLpp5+uuojGjh0b8/1MsDVlC+AKvrrLzJQtgK0b/MITTzxRXtFfd911csMNN8jgwYNRjFqSCRujXygrmmB+QUehxVNmCBwbNWqk1oB87733DlAnHrkHCAr4QL9QBsOULTBeEKlZs6ao4FH32maQZ/8F2LS2t6b01aagJcgeO6VbV1tHt8i17cC0vqjksdPDd999JzVq1LAxRf1q6xv1hWEuMGULtq6m2YbJWlRfuUVfDHuw1wPFKz7rYmzKFuyC0KWnLc9+1S3XLbYQmP9YGcAfbdy4UVq3bi3XX3+9PPXUU0qsKVtwK9tY+dplFOpVt1ybb6j7xXLclC3YuuhmALkqeMTK+DoTWhyTk5MlLS1Np1gpKChQMiFbZ4KeJhhg4oZuuWCAX1S65eLXKpJuuXCcqIB1yw20hfvuu09efPFFWb9+vXLQ8dgGOOjWFc+DCVsAV/DVra8pW3CLXxg6dKi0adNGevXqJQ8//LD07NkzHpM64FpTtkC/UIY50C8cAD7OD/H6hSOPPFL5p2OPPVatAYlVIEzZAv2CWVtgvFDGV28UFucDystJIFoCzz//vNx5552yZMkSadu2bbSX83wSOICA3QJwwEF+IAENBOCfli5dKr1795ZmzZrJZZddpkEqRZBA1RBg8Fg13HlXDQQWL14sQ4YMkTlz5iiHrEEkRZAACZCAMQJozYa/GjhwoJrch91omEjAjQQYPLqx1KizfP7553LeeeepZTAuueQSEiEBLQQwNoitj1pQUkgIAvBXv/76q/JfmEBzxhlnhDiTh0nAuQQYPDq3bKhZCALffvutnHnmmTJy5EgZMWJEiLN4mARIgAScSeDmm2+WLVu2KD+G3WiOOuooZypKrUggBAEGjyHA8LAzCWzdulWOPvpo6d+/v0yePNmZSlIrEiABEqiEwIMPPihYBxL+7JdffpGmTZtWcgW/JgHnEGDw6JyyoCaVENi9e7ccdthhgnFCM2fOrORsfk0CJEACziYwY8YM2bFjh/Jru3btknr16jlbYWpHAvsJcHtCmoIrCGBh1vr168uAAQPkv//9ryt0ppLuI8Dxju4rM7drvHz5cmnZsqVamB5+jokE3ECALY9uKCWf64h1LbF22dVXXy34pc5EAiRAAl4isGnTJrVrB1ofp0yZItWqVfNS9pgXDxJg8OjBQvValrAoPHZmePLJJ72WNebHYQQ429phBeIjdbDNKOwPGwpgi0wmEnAyAQaPTi4d6qZ+gWNv4UcffZQ0SIAESMDTBOxdmBBAPvPMM57OKzPnbgIMHt1dfp7Wvk6dOnLrrbfKxIkT2Y3j6ZJm5kiABEAA3dX5+flqG97c3Fx56aWXCIYEHEmAwaMji4VKNWrUSIYPHy7YAzY1NZVASIAESMAXBODv0IVds2ZNKSoqknnz5vki38ykuwhwtrW7yssX2mI5nuuuu05uv/12ycjI8EWemUlnEOBsa2eUg9+1gN/LzMyUV199Va1p63cezL/zCDB4dF6Z+Fqj5s2by//93//JLbfcIrVr1/Y1C2aeBEjAvwTg/zD7euHChQwg/WsGjs05u60dWzT+UwwzDe+44w7B1l1cLNd/5e+EHHO2tRNKgTrYBOAHsYh4w4YN1UxstozbZPha1QTY8ljVJcD7KwInn3yydOrUSY1xbNCgAamQAAmQAAlYBOAPsdYt0umnn65e+Y8EqpoAg8eqLgHeX/r16yfYenDZsmVqMXAiIQESIAES+INAUlKSGgO5dOlSOe+88/74gu9IoIoIsNu6isDztmUEzj//fHnzzTcFy1KkpaURCwmQAAmQQBACGANpd2Fjm1ZMpmEigaoiwJbHqiLP+8rAgQNlwYIFalB4jRo1SIQEqpwAx5RVeRFQgTAE0IW9Z88emT9/vlx88cVhzuRXJGCWgGp5LCkpMXIX3XJtx65bLuTplgmg0Fe3XFMMTMm12VbkgH2q586dq7qr8Yu64veVvv9NNwAAKGZJREFUGaQpfXHfaHWpTFd8b8IWQrGNRJ9w55hki/vq5qtb3w0bNsjy5csVIrw2btxYjj766HDIovrOhC3oZmBnyJRcN9qubrsF41hsoVatWiqArFu3rlxyySXyyiuv2MWlXt3IForr5mvadg+AruFDLLZQ2W1NMcAwChU87ty5szIdovoeg3sLCgrU7LCoLqzkZGzdhLFxutPevXtFNwPoCH11y7UNDNtX6Uz2g5uXl6dTrBqng+7olJQUJRe2gWV44PC2bNmiFsGNhZEpW8CivLHoUxk0E7aAZwFrwenW15QtuMEvIFAcNWqUTJkyRRXp+PHjFePRo0dXVsQRf2/CFtzuFyKGV8mJfvIL8J9Y2qx69erKXrE7DRL9QpmRmLIFxgsi2MRDBY94ozOhQsMq+brHsGHNK7RSJSfrHaqJbfB0M4DhZmVlSf369XWiVUE5tq+CzjpTTk6OEqd7UW4sNYGuFvDFD4qRI0eqwBFBWjzlaMoWtm/f7hpbgI2BqW7bNWULbvEL2BITLY3XXHON2l/43HPP1caYfqHMawX6BZ1+zG9+AX4UwSPqg6lTp6o6l36hzKJM2QLjhTK+eqMwnV6AsjxFAIH0fffdJ9OnT1fLTqDZm4kEnEjg0EMPlTZt2ijV8IrPTCTgRAL4AY6eAvhT/PDHOrlMJJAIAgweE0HZ5/f49ddfpUOHDmrhb3sMhs+RMPskQAIkoIWAvbA9WnMfeugh+fLLL7XIpRASCEeAzT/h6PC7uAls2rRJBY4nnniimlUdt0AKIAGDBPjjxiBcijZKAGMd27dvLyeccILA7zKRgEkCDB5N0vW5bMxUveiii6Rv376ydu1an9Ng9kmABEjALIHPP/9czjnnHME6kP/973/N3ozSfU2AwaOvi99c5rGAbY8ePeSyyy6TZ5991tyNKJkENBJAFyATCbiZwIwZM2TQoEFy2mmncSFxNxekw3Vn8OjwAnKjeljmBAvYTps2TS3L48Y8UGcSIAEScCsBLIf2j3/8Q/lhe9kpt+aFejuTACfMOLNcXKvVkCFD5Pnnn1c7x2AP1jVr1rg2L1ScBEiABNxK4MYbb5QWLVpI//79Zd26dTJr1iy3ZoV6O5AAg0cHFopbVcJA7a+++kow7gYDt5lIgARIgASqjgB+wMMfn3TSSfL777/Lv//976pThnf2FAF2W3uqOKsmM9jt5oYbblCB488//8zAsWqKgXfVQICzrTVApAhHEcAP+V9++UWWLFki119/vdr5zFEKUhlXEmDLoyuLzTlKwyk1a9ZMKYSdb7CzEBMJkAAJkIBzCDRt2lRyc3PVYuJPPfWUbN26VZo0aeIcBamJ6wiw5dF1ReYchT/66CMVOGINR7TYMHB0TtlQk9gIcLZ1bNx4lfMJ2IuJw18jmFyxYoXzlaaGjiXA4NGxReNsxTAppnv37jJ8+HCu4ejsoqJ2JEACJFBOAGvuwm9369ZNnn766fLjfEMC0RBgt3U0tHiuIjBw4ECZO3euvPjii2odR2IhARIgARJwD4HHH39cunbtKpdffrm8//77Mm/ePPcoT00dQYAtj44oBncosW/fPrnmmmtU4Ij9U7EAOBMJkAAJkID7CMB/YwkfbOgwbNgwTqRxXxFWqcZseaxS/O65+ebNm6VVq1ZK4b1790rNmjXdozw1JYEICXC2dYSgeJonCLRr107gz2vVqiXPPPOMwM9jbUgmEqiMAFseKyPE72X+/PkqcMR2V6hcGTjSKEiABEjAGwTgz+HXMYa9ZcuW3NLQG8VqPBcMHo0jdvcNMCZmwIAB8vDDD8uHH37o7sxQexKohABnW1cCiF97lsDy5cvl0UcfVVsackiSZ4tZW8bYba0NpbcEYU2wcePGyUsvvSSrV6+WDh06eCuDzA0JkAAJkMABBG6++Wbp0aOH8veNGjWS+++/X9LT0w84hx9IAAQYPNIODiKwcuVKOfXUUwWtMAgia9SocdA5PEACJEACJOA9AtjKEH4fQeO0adPUepCYmc1EAoEE2G0dSIPvZdSoUSpwvPbaa6WkpISBI22CBEiABHxGAA0GGAeJegANCbfddpvPCDC7lRFQLY+YbaUzFRcXS0FBgRQVFekUq5YSwC8i3eOSIFM3Azx4WNpGt1wEdOCrW252dra0bt1a/eJcsGCB9O7dW8s9cnJyBLJ16wu2JmzBBFtTtgCu4KubLRggmZDrdL+QlZUlU6ZMUWO/wABjv0aMGKEqUXyON5myBVN+wZQt0C+ICs5M1BE6/cJDDz0kffv2lf79+8tjjz0mmzZtUo0K8T4HgdfDxpzuFwL1Zbwgana+Ch6Tk/X2XuOBgMykJL0NmwgaIVd38FitWjUlN9BA4n2PSsLWN15ZgdejksCfzjJbunSp/OUvf1G3+e2335RhBN4znvdga4KvzVa3Ldhy48lzxWtN2YIptrb+Om0MMt3iF7B1G35IYd92vOKzLhambMGEX7DtAK+68m/LNGW79vNLv6CvTuvTp4+gXjjkkEPUs/Dvf/9bNS7YZRnvq1v8gp1PE/WZG/2Cihp1j2krLCxUAUNaWprNW8trXl6epKSkaHdk2JNZNwM8EPn5+drl4hcaZOvS9+KLL1ZLM9x0001qcHRGRoaWsrKFwAagqy59bbmmbAGtbbp1NWUL0NPma3PR8YpWISTdHNzgFxB0wJEfdthh0qtXL7nnnnukZ8+eOrAqGaZsQbdfsDNsyhZsu9VtY/QLZc+tzdcux3hfUU5o0bzjjjtUQwPqDewypiO5wS8E5tPP8UIgB71NjoGS+d7RBAIX/cZs6qOPPtrR+lI5EiABEiCBqiWA2ddDhgxRs7GxpSEXFa/a8qjKu+vtV67KnPDeERO4++671aLfp5xyiuoC5zI8EaPjiSRAAiTgawKYjY1hEh07dpSW1qLiEyZM8DUPv2aewaOPSn7Hjh1qHCa64l5//XX59NNPtY8f9RFOZpUESIAEfEkAwzs+++wzeeONN+Tee+9V9cjvv//uSxZ+zTSDR5+UPHaIwaKvhx56qJqhe/755/sk58wmCUROAOMdmUiABCIjgFnYmH2MeqVx48blqxREdjXPcjMBBo9uLr0IdN++fbt6qG+99VaZOXOmbNu2jTsGRMCNp5AACZAACVROAJNpUK+gfhk5cqRaZQX1DpO3CTB49HD5jh8/vnx5BcyUu+qqqzycW2aNBOInoHuJl/g1ogQScAcB1C+Ynd+sWTNV79x1113uUJxaxkSAwWNM2Jx90fr169UYlEmTJglmxK1du1Z0L8HjbALUjgRIgARIINEEsKXhli1bZM6cOTJx4kRVD6E+YvIeAQaPHitTjEFp166dWqMOa8oNGDDAYzlkdkiABEiABJxM4JJLLlHrEWONVNRH5513npPVpW4xEGDwGAM0J17yyiuvqF95CxcuVLOosWsMVsJnIgESIAESIIFEE0D988EHH6j6aNGiRap+Qj3F5A0CDB5dXo7ff/+9GqA8aNAgufPOO9XuGFi/kYkESCB6ApxtHT0zXkEC4QigPsJzhfoJ9RSCStRbTO4mwODRpeWHLumzzjpL7b177LHHCrbVwxgTJhIgARIgARJwGgHUT5i4iW5s7BmP+gv1GJM7CTB4dGG5PfDAA1K9enV599131UKt69atk5o1a7owJ1SZBJxFgLOtnVUeurT59ttvZerUqVKnTh2ZNWuWEjt9+nRp2LCh8qO67kM54Qlg4uaXX36purJRf6Eew5aHTO4jwODRRWWGmdPY8B7B44wZM1RXALaIYiIBEiABEghN4KijjhKsddupUye1AsXbb78tLVq0kH/961/SpUuX0BfyGyME7K7sZ555RiZPnixYK/LVV181ci8KNUOAwaMZrlqlrly5Ug02xgy26667Tvbs2SNXX3211ntQGAmQAAl4nUCfPn3kk08+kU2bNknfvn2lR48eUqtWLa9n27H5Gzp0qKrPrr32Wrn44ovluOOOE9R3TM4nwODRwWX09ddfS0pKipx66qnK0eXl5XH7JweXF1UjARJwNoHu3bvLrl271Hg7Z2vqL+0effRRtc1h165dVX2Heg/DsZicS4DBowPL5rvvvlP7UONXGAYXY8P5f//736rL2oHqUiUS8AwBzrb2TFEGzcgvv/yiZvuuWbMm6Pc8WHUE0HWNbuydO3eqeu/4449XO9VgvCqT8wgweHRQmfzvf/9T+1BjPAgGcv/888/y+eefq/cOUpOqkAAJkIDrCGzdulUQPHbu3Fk++ugj1+nvF4Xr16+v6r2ffvpJ6tWrJ0cffbQKIlE/MjmHAINHB5TFqlWr1EOCJXcaNWqkxuPgQTnssMMcoB1VIAH/EOBsa++V9YYNG9SSMM8995zcdNNNavet//znP6qbdPbs2d7LsEdyhD2yv/nmG7XdYYMGDQT1Y+3atQX1JVPVE2DwWIVlgK5oVFZoaWzbtq389ttvgnGO+LXFRAIkQAIkEB8BDPlB0NGtWzcZNmyY2lABW+UhoBw4cKBcdNFF8d2AVxsncPjhhwv2x962bZvqzkZ9iXoT9SdT1RFIxq2Li4u1a4CxQ7rlQqYJudAzkbo+/PDDMnr0aMW8X79+8vzzz6tfVJGUhSkGkBvJ/dVJUfyz2SaSbxTqHXSqCfsyVWYm2QKM7jKDTDfwXb16dXnFhAoKa6i2b98e6sedTNmCSbnItG5bMGm7gTaGLlCMmTvkkEPUcjC4L5Y3w7hyBCXY7SSSvAXKjNsI9gswVWYm2ZqwBciMhC965f773/+qDTGuuOIKOffccxXJhx56SEaOHKneB/4zzTfwXvG+N6WrKbl4blTwiKVfdCasGl9YWKh+5emUW1RUJJmZmepXh065OTk5arkAnTJRaOBgs8UOMFhnDOuKId1www0yYcIElZeSkpLy8yrTAefiLxKHV5mswO9teQUFBYGH436PfKenpyvHHbewAAGmbCGwzAJuF9fbirYQl7CAi/EsgK9tYwFfxfXWlC24xS/MnTtXUCEh2a8tW7ZUn+P9Z8oW6BfKSiaYX6hbt67ArwX6NhzDsxNpol/44wdEIMdI+YU7Lxa/gIXeYfN333233HbbbervggsuUAvB20svBbOFcHpE+l0i4oVIdansPFN+AcMIVPCINzoTKrXU1FTts4OxxALGPCQnK7W1qQyZuhnggcjKylLN7QMGDJBff/1V6fvCCy/I5ZdfHrPueHDz8/PVTgkxCwlyIR4IJOwAoDPBSePXv26+pmxh+/bt2nW1bQEcdCb8QIMt6GZryhbc4BcQ3EFPtE5hXVUEkn/+85+1PW+mbIF+oezJol8Q1XDjF7/wxBNPCP5Qr1555ZWqcebQQw+V+fPnq6FgbosXdNcRpvwCnjaOedRZm++XhQoCm8CjUj/ttNMExowxNqiY4gkcDahKkSRAAhUIYAs7dHMi4RWfmUiABJxLAN3YqF8xwQbPLNbzRP374IMPcv9sQ8XG4FEj2CVLlghmiGG/ThgtuqnRdI7ldrA9FhMJkICzCXC2tbPLh9qRQDgCWNZn7dq1KmAcNWqU2sYX9THGty5dujTcpfwuSgIMHqMEVvF0rEV1zTXXqLGLZ5xxhlpqB8aLoPGOO+7Q3sVe8f78TAIkQAIkQAIk8AcBTOgYO3asmiyF+hiTbU4//XRVT1944YWCepspPgKeCR6/+uormTJlijz++OOyY8eOSql88MEH6txKTwxyAsYyYpAuWimaN28ukPXPf/5TNZujlfHEE08McpX7D82YMUN1v4fKCbrr33vvPdVl/9RTT6nxeKHO5fE/CGCv3QceeEBee+21Awb1/3FG2bsvvvhC7rvvPnn77bfVj5OK3/NzYglgEf8nn3xSYOt477eUm5srr7/+ukyePFk+/vjjkNnH2NxFixbJ3//+d7UUWcgT+cVBBLDPsz3J8qAv9x9AVy16urDFH8brMh1IAPUxdhRCt/bTTz+teKLeRv2NgHLz5s0HXhDkUzzxQhBxnjjkieBx+fLl0qlTJ9Us/cYbb6iu43APHCavYBP2l19+OeJCxCQCjGOEwWEMFAJVBJCYsYdlH9D66NUE579w4UKVR6y3FSqBx5AhQ9R6XGh1vfrqq0OdyuP7CWA7LjgwBIbgB7uEk6uYxo0bpxY3xq/o//u//5PevXtXPIWfE0hgy5Ytas05BE+YVIO15yKphBKoovFb/fWvf1U2i4oZvS7BFtzGbM8TTjhBLU2GH0mYiDRt2jTjunnhBhs3bpSrrrpKTf4IlR8sXQO+2FRi5syZcsQRR6jFz0Od7/fjWOvzww8/VBN6W7VqpWIGvKJeh4/Nzs4+CFEs8cJBQrx4wKqotCdr6ZDSvLw87XKtPS9Lre7gg+QOHTq01JoZWX7cGjxbajmz8s+BbyxnVtqnT5/Spk2bllqbsKuvrF/FgaeUv7cW7S4dPnw4avLyPytILLWMqfycUG+gJ/TVnaxZdKXgqztZD00p/oIlsLIZWEF5sFNKrZbf0qSkpFIrCFLfW2vlKb5Wi0SptS1Y0GviORjKFuKRiWtR5rpTKFuwZsKVWstKlFotuuqWmzZtUpytHyMHqIDrrVl4pa+88oo6brU0qPOsVt5Sa7eFA87V8SGcLcQjP9F+IR5drZYGxRivwZI18a307LPPVl/Bp1g/Xkvvv//+YKcecCyULRxwUgwfEu0XFixYUGrtRVz+vFitj6UnnXTSQZpbO7mUWitvlFo/vtV39957b6k1Lq0U/oF+IXQdMWLEiHKfe+mllx7E1T7Qrl27UivoUR/tuu3VV1+lX7CIhKojKsYL1kLxKh6w6zi8ot5HXWAzjSResMsklle3+QXk0RMtjxgkG9jyl5KSotaAsozgoDR16lS1hE6wRUVxMn4dY/FR/BLBrC0sA3DzzTcLdiqweKnuaXsm5kHCPXoA3SJYSxCLJYdK2DIKs8qtB1Z1Y4HVihUr1OShUNf4/fj333+vWq4xBgeppbWWIGwLLTmBCUtTYSLWW2+9pVq35s2bp345t2jRIvA0vk8gAbQA2+UGX4GeDywu7peE/GNGa+PGjVWWu3TpIuvWrTto2AVsFMuFoCcIi3VbwbhaQsUvnGLNJ7r44XMxizhUQisZdiQ75phjVJc1WsHffPNNtZtOqGt4XNRe2YHxAnoSEUOgzsJSbTfeeKOq9+GLrQYR+eyzzwRrSDIdSMCVwaMVpau1rNCdioRZVeg2sX4lyCOPPKK6T7AId8UE546H8sUXXywPavAAwrE1adJEBYxwgugKwOLAWCsLBoWxJA0bNqwozpOfsUA0uOIPPJGw6CoeMFSSoRK67vHgodsV4x47d+4s119/fajTfXkctmSzxfhQVKZYQD1wKZg2bdqoLuyKgLAnL9YyQxfLXXfdpTjrXpOz4j39+Dmcjds8UI7oUrRaI+xDgnL78ssvyz97/Q1sNzD/rVu3VuNw0X0amFAp48c4giC8x4oUGHbBFJ5AWlqa8guYKRwqwQaREOxgJyR0ycI/IFhnCk0gXLyAiTX/+Mc/VL3/0Ucfqc0t4KsxlwLjT/FjCGPT7bVwQ9/F+9+4MnjEYFcsQo4//NpFgtPCr38EfVaz/UG/FPBAWc3/6kF75513VJAJY0Bg9Nxzz8lxxx2ngh5UDPjFBwODfL8ltMjabLF6f6Rp9+7d6oFDBQq+cGYYA4XgnKmMAJyRzRbjlBA0wi7hnOwE+4MDC0xozUUg/re//U3Zub0oLlp/mBJPAAEm/EagbQcrt8Rrlrg7wnaDVaAVbRdbr2KC15w5cwSTGvHjEj+EwIspPgLwuUiTJk2Sd999V80gxo//xYsXxyfYB1dHEi9g/P6YMWOUz8VucPiBhDGls6zdbdALBz+A8eqwbbuhxQfoyrPoyuARwQlaEfF35JFHqq5mLMbdo0cP1ZrTv3//8gyiYkbhnnXWWWpiyz333CPWeAb58ccfVeHDCKzxO+rhQ+ul3xP23LbZRtNyiG5VrKWFFlwka/yTGriNzeyZygiAic0WOyCcfPLJqhKFLSKhQt1szfxDYBmY0P2P1nZrvJjqokIQiXVD0QXIVDUEMEHmhx9+KL+5NV71oHIr/9KDb5B/DLuwE1hgUebDDjvMPqRe33//fbVRAnbrwQ90TEoAK0w4YoqPAHwuEnp5kKwxqKp1FxtSMIUmgKFpoeIF+yrMWkfdhYmxxx57rFoNAzYO/414AT8c0SMJO0ajFJYGQjBpzadQ8UZgg4At02uvrgwejz/+eOnQoYP6wwMzceJENYsPXdVojUGrIcaBoDDR7I/CRQWNX2iYOYVKGs3Q6KLGbGmMa2AqIwCHZLO1A8FQbOCkpk+frr5GcI7AB62+aE0D37Zt26ruvFDX++04uplttnBIaL0CIzghDJHAkifYXq19+/aqNRLLwKCiRVcUErqtEURiOShU3PyxU3UWhF4OzG5F6w9mb1qTmcSagFd1CiX4zsg/fC2CQ2vii/LBdv4D/QJsFxUueiRQoWJcHlpw0HvEFD0BMLT9AlrBMFwCPRGox9CThiWTzj///OgF++iKwHgBQ60QFNpLbaHHDMOuMJYXTPGHpfkwVwJBOt4jXoAvx1wIDB1APIFAE/EFhm8h3kDcgfgDsQqGynnyx5KVce0pUbMqcR/LgZdaEwrKZ6ZZz4B6b3UPllrrr5VaQU3pwIEDD8qjFdxUOtv6oIuiOOC22VPWL6mQs63tbFv7hJZazt/+WGp19yv29gHr4Sm1foGVWg+OmkVsLe/DWZUWnHC2YC0zVQqu4GaNfyyfUY3ZqbBle3Y7ZrNarTql1lioUquFp9T6gaRmq3K2dehZlbZdxvJqteoq/ngNluB7rABKlZtVSZRedtllamZmsHMDj4WzhcDzon2f6NnW0M9ajkutsADbtQKZUqsCVmoH+gWrsi3FbFbMzIbtWq2PpdZyavQLFqlIbMFa7qx00KBBiiv+VfQL1vj8UmuiovK58BdWrwT9wn5aoWZb16tX76B4oWXLluqqvn37aokXrJbLUqthpfTUU0896F5YpQFxi/XDc7+mkdlC+clRvDHlF6ACombtyUTwaM0qK7V+MZT26tXroMKwWshKrV8BpVb3Xkx5CbVUT0zC9l8UiWOIRb4pY4gkeIxEXzwQVitD+VJNVqsDl+SoZNkmaxKNYoayDZewbASWRLJadtVpWOqEwWPVBI92OWFZpWiWd/KaX7Baykut8WM2jpCvCHoCz6Nf0BcwwH/AL1grgtAvBFhgqOAx4JSY3sYaL2DZOizBhGDfbuTCK354Ia7BMlaIc3QmU/ECdEy2lHdUQrMvZuShOwSvGJNojwmDohjrhT2j+/XrJz179nSU7lRGpG7duuqPLCIngC4OdG9UltANgnFjTOYIgLHlFyO+Abpg/ZysVhzBX2UJqwpgKBGTfgLwH/QL+rnqlohub/xhRRg7YcgLYh0Me8EqGvizEyafWUGlGp6ETSEQ+zgpVUnwiPEFGJ/x6aefyrJly9Q6ShWhYPA1Bp9imQcAxEBsjAezuvi4X3RFWPxMAiRAAiRAAiTgKgKY5Iu/8ePHq/GU1mYQagwx1vRdunSpWIvsq3kEFTOFCWu4DmOPra5xtQ5wxXNMfzYSPGJwKNYBw8BpDJbG7KZffvklaF6wXRWWbgAIBIkIGplIgARIgARIgARIwG8EsH6qtQuO+gvMO5ZswwobaHDDChyYxBMsoVcWs78RYKK1H+urBq4lHOyawGOYlIWNKSpLlZ8RIAEzkxAQ4g+7jiBAxF7HgUs2BJyu3mL2LmaPAgZmNyNSRnTtlJSbm6vWx8IrulaY9BLAkAMYcmUzt/Xe1R/S8DyCL5b8YdJLwBorpATar3qlUxr9gjkboF8wx7Yq4wU0rGFXK3tnq8Bc7tixQ7DLG3bDwYoy1rhMsSamBZ5ywHsscYiVPhBY4s8OMjHL/IEHHlCNeFjMH7v1hUoqeMRyKz/99JNqLsVyKwgG7anroS7EcWuGklIA6ypae2yqdc4wdgsOF4shY5V8pyd0nWPdPIBEyyeTXgLWbEGBfcyyFlZl0ksAY2ew5hi3ztLH1R7viEWEkfD65z//Wd8NKEkRoF8wZwj0C+bYOjVewA541ixu9YfcY/kmJCybh3gMQSB8GZZ5Q4MfGgCxtSW2swyVEBchIbBEUIl4D8MHscvOtddeKyp4tE+CAlh/Cy0ZAwYMUKup40SsJYWB4ZE0ZeJm2PUFUTJupith5XxkGHpU3MVA1z10ysH6b1gDCi2taHnTlfCrAr8ydLc22etQIYh2ejJlC/hVidZ0TNLS2QptyhZMlZMpW8DzQL9Av2DKbukXTJEtk0u/YI6vqToiMF6w1xgOlwt0WaMORIMi1mpGQi8BFkVHXId5J0gIHo0s1WNVEKXWPpuYza0tWU3xanq7te+kNpkQZA1KVXLxqjNBT4txKfTWmaxCU+v86ZQJWd27d1d/uuVas69LBw8erFUsbaEMJ7iCr+5kyhbc4BfwzCJZrTfq+cWrzkS/UEaTfqG01JQt0C+UqnoXzzLjhdjiBeuHWKk1H0X5QHDEnzUEsdRaoL58qbg/4VHWPQbRWudRNZPqbL3B3pHYMgg7yujsDrfWXVNRNVqbsOSBroSm4ry8PDVQVecONmgds9b10r4cDlbOR8Jsdp2JtiCq24C2IGrPeHSfONUv2M9sxeV68BkJfide32PfAwPY6RecawuBPpB1RBkN1hGidvhCK5wf4gW0QmKHnYoJ/hDxmOq2xuwcnWnu3Lmq+9verkqHbDjdefPmqfXwdK4XhmZd7JWN6e7W4p06VFUyMKEI4yMwXireCidQKSxxhO4D3WX29ttvq9tg3ITOhH3FMfQBk6V0JdpCGUlsRYYxym6xBaf7BYzzxtqyGKaDbiRr0WU1RMZexxCT//AXT6JfKKNHvyBq0qmJOoJ+oewHO+MFUUsixhovoPsathSY8IO3fG1bnV0ytixrIcxSa7FL+6OWV+xkYC2SWWrt76tFni3EVLc19IS+0FtnmjBhQin46k7YAitwGyxd8k10T5myBcuRl1qBQyledSZTtmCqe8qULbjBL1iOUhW9qW5rU7ZAv1CqfK2JOoJ+ocwb+tkv2PWBX+IFa16FGh4Hf4g/q8eo9Prrry+1JlbbKNyzPSE0NrHdkClj8No2ZOUWE+UbE8GjKVuA3Gi2mosUhSlbMBU86tqqsiIfE9uW4h4m/IKp4NGULVit8aXgqzuZsgX6BX3bE1Ysc/qFMiIm/IJf4gXMWQkVNNr2FtU6j5Ywz6WMjAzVFYVXJv0E0GV9yCGH6BdMiYor+DLpJ4Cx1Uj2q/47+Fsi/YK58oe/pV8ww9cP8QLWi7R6SMRqaZQ77rgj5FAd3wePWIUd09LxyqSfwMyZM7lAuH6sSuKIESPk4osvNiTdn2LtyTL2uGr71Z80zOWafsEcW/oFc2z9EC9gSR6Md6xsfLfvg0dzZkbJJEACJEACJEACJOAeAkOGDIlI2aSIzuJJJEACJEACJEACJEACJGARYPBIMyABEiABEiABEiABEoiYAIPHiFHxRBIgAa8TsGYSej2LzB8JkAAJxE2AwWPcCCmABEiABEiABEiABPxDgMGjf8qaOSUBEqiEgL0VYSWn8WsSIAES8DUBBo++Ln5mngRIgARIgARIgASiI8DgMTpePJsESIAESIAESIAEfE2AwaOvi5+ZJwESIAESIAESIIHoCDB4jI4XzyYBEvAwAc629nDhMmskQALaCDB41IaSgkiABEiABEiABEjA+wQYPHq/jJlDEiCBCAlwtnWEoHgaCZCArwkwePR18TPzJEACJEACJEACJBAdAQaP0fHi2SRAAiRAAiRAAiTgawIMHn1d/Mw8CZAACZAACZAACURHgMFjdLx4NgmQgIcJcLa1hwuXWSMBEtBGIBmSioqKtAmEIDhg/OmWW1JSIvjTLXffvn3aZSL/JnSFTBNsIRNJN1vIs//UDTT9M2ULptiasAVwNWW7JmwBbE3w1W0LH3/8sbzyyivKUvGalJQkXbp00WK5yL8JW4BME2wh04Qt2D4BrzqTbluwdTPF1oQt0C+UlZopWzDlc03YAmSasN3q1auLCh737t1rPyNaXouLiwV/umcuQmZ2drYWHQOF5OXliW4GkA99dcuFIcAgdMuFTKTCwkL1qutfbm6uKjPd+pqyBRNlBpYm5OJZyMnJcY0tgAH+nOwXGjRoIKNHj5ann35aPQJ4rVOnjrRr107XI2HEFugXyooH9mWijjDx/EJjE3LpF8zaAuMFkfr165cFj3ijM2VmZkpqaqqkpaXpFCu7du2S2rVrS3Kyinm1ya5Vq5aCoU2gJQi/TrKysrTLLSgokPz8fFWh6dQXQQhSRkaGTrFKz3r16mnnYMoWtm/frl1Xk7YAR6b7+TVlC27xCxMnTpRevXpJ37595a233pIzzjhDUlJStDwXJm2BfkGM1RH0C6J+qJqoI9ziF2wHwHihjATHPNoWwVcSIAESsAggUExPT1cs8KorcCRcEiABEvAKAQaPXilJ5oMESIAESIAESIAEEkCAwWMCIPMWJEAC7iCAsYNMJEACJEAC4QkweAzPh9+SAAmQAAmQAAmQAAkEEGDwGACDb0mABPxNQPdMcH/TZO5JgAS8SoDBo1dLlvkiARIgARIgARIgAQMEGDwagEqRJEACJEACJEACJOBVAgwevVqyzBcJkAAJkAAJkAAJGCDA4NEAVIokARJwJwHOtnZnuVFrEiCBxBJg8JhY3rwbCZAACZAACZAACbiaAINHVxcflScBEtBJgLOtddKkLBIgAa8SYPDo1ZJlvkiABEiABEiABEjAAAEGjwagUiQJkAAJkAAJkAAJeJUAg0evlizzRQIkQAIkQAIkQAIGCDB4NACVIkmABNxJgLOt3Vlu1JoESCCxBBg8JpY370YCJEACJEACJEACribA4NHVxUflSYAEdBLgbGudNCmLBEjAqwQYPHq1ZJkvEiABEiABEiABEjBAgMGjAagUSQIkQAIkQAIkQAJeJcDg0asly3yRAAmQAAmQAAmQgAECyZC5Z88eraL37dsnxcXFkp+fr13u3r17Rfe4pOzsbO0MMGsTHHSzLSkpEfzplovyQioqKtJaZiiv9PR0qVGjhla5YGvCFkyUmSlbyMzMVAzcYgtu8Au7d++WO+64Qx588EFlr6effrqMGTNGRo8ercV+TdkC/UJZ8dAviNAvmLUFxgsidevWFRU8onLXmXJzcyU1NVWqVaumU6wKxqCr7uARuupmgErCDpx0QkCQV1BQoF3fwsJCpWZKSopOdSUtLU0Fjrr5opIwYQsm2JqyBQTk4KubrSlbcItf6Nmzp/z444/y8ssvy8CBAwWfdTE2ZQv0C2Vui35BlL+lXxDGC9YjYcov4GlTwaPugCEvL08FeLrlJiUlqYA0OVmpXeYtNPyvXr266NYVTgz66paL4AbBs265doujbrk2W91yTdmCCbambAFMbb4aHoNyEaZswQ1+AeWPAA+VL4LHYcOGqeCxHE6cb0zZAv1CWcHQL4iqG+gXRNW/aMBivKA/XsDTxjGPcVYGvJwESIAESIAESIAE/ESAwaOfSpt5JQESIAESIAESIIE4CTB4jBMgLycBEiABEiABEiABPxFg8Oin0mZeSYAEwhLAeEcmEiABEiCB8AQYPIbnw29JgARIgARIgARIgAQCCDB4DIDBtyRAAv4moHsZMH/TZO5JgAS8SoDBo1dLlvkiARIgARIgARIgAQMEGDwagEqRJEACJEACJEACJOBVAn+yBohzhLhXS5f5IgESIAESIAESIAHNBP4fREnpulKTQaYAAAAASUVORK5CYII=;" parent="1" vertex="1">
          <mxGeometry x="431" y="20" width="265" height="159.4" as="geometry" />
        </mxCell>
        <mxCell id="7yW3JbcLsS10eUoLvzNY-7" value="Start" style="whiteSpace=wrap;html=1;container=0;" parent="1" vertex="1">
          <mxGeometry x="199" y="20" width="50" height="20" as="geometry" />
        </mxCell>
        <mxCell id="7yW3JbcLsS10eUoLvzNY-8" value="Task" style="whiteSpace=wrap;html=1;container=0;" parent="1" vertex="1">
          <mxGeometry x="159" y="90" width="50" height="20" as="geometry" />
        </mxCell>
        <mxCell id="7yW3JbcLsS10eUoLvzNY-9" value="" style="html=1;rounded=1;curved=0;sourcePerimeterSpacing=0;targetPerimeterSpacing=0;startSize=6;endSize=6;noEdgeStyle=1;orthogonal=1;" parent="1" source="7yW3JbcLsS10eUoLvzNY-7" target="7yW3JbcLsS10eUoLvzNY-8" edge="1">
          <mxGeometry relative="1" as="geometry">
            <Array as="points">
              <mxPoint x="214" y="52" />
              <mxPoint x="184" y="78" />
            </Array>
          </mxGeometry>
        </mxCell>
        <mxCell id="7yW3JbcLsS10eUoLvzNY-10" value="Task" style="whiteSpace=wrap;html=1;container=0;" parent="1" vertex="1">
          <mxGeometry x="239" y="90" width="50" height="20" as="geometry" />
        </mxCell>
        <mxCell id="7yW3JbcLsS10eUoLvzNY-11" value="" style="html=1;rounded=1;curved=0;sourcePerimeterSpacing=0;targetPerimeterSpacing=0;startSize=6;endSize=6;noEdgeStyle=1;orthogonal=1;" parent="1" source="7yW3JbcLsS10eUoLvzNY-7" target="7yW3JbcLsS10eUoLvzNY-10" edge="1">
          <mxGeometry relative="1" as="geometry">
            <Array as="points">
              <mxPoint x="234" y="52" />
              <mxPoint x="264" y="78" />
            </Array>
          </mxGeometry>
        </mxCell>
        <mxCell id="7yW3JbcLsS10eUoLvzNY-12" value="End" style="whiteSpace=wrap;html=1;container=0;" parent="1" vertex="1">
          <mxGeometry x="199" y="160" width="50" height="20" as="geometry" />
        </mxCell>
        <mxCell id="7yW3JbcLsS10eUoLvzNY-13" value="" style="html=1;rounded=1;curved=0;sourcePerimeterSpacing=0;targetPerimeterSpacing=0;startSize=6;endSize=6;noEdgeStyle=1;orthogonal=1;" parent="1" source="7yW3JbcLsS10eUoLvzNY-8" target="7yW3JbcLsS10eUoLvzNY-12" edge="1">
          <mxGeometry relative="1" as="geometry">
            <Array as="points">
              <mxPoint x="184" y="122" />
              <mxPoint x="214" y="148" />
            </Array>
          </mxGeometry>
        </mxCell>
        <mxCell id="7yW3JbcLsS10eUoLvzNY-14" value="" style="html=1;rounded=1;curved=0;sourcePerimeterSpacing=0;targetPerimeterSpacing=0;startSize=6;endSize=6;noEdgeStyle=1;orthogonal=1;" parent="1" source="7yW3JbcLsS10eUoLvzNY-10" target="7yW3JbcLsS10eUoLvzNY-12" edge="1">
          <mxGeometry relative="1" as="geometry">
            <Array as="points">
              <mxPoint x="264" y="122" />
              <mxPoint x="234" y="148" />
            </Array>
          </mxGeometry>
        </mxCell>
        <mxCell id="7yW3JbcLsS10eUoLvzNY-1" value="" style="shape=mxgraph.signs.healthcare.mental_health;html=1;pointerEvents=1;fillColor=#000000;strokeColor=none;verticalLabelPosition=bottom;verticalAlign=top;align=center;sketch=0;" parent="1" vertex="1">
          <mxGeometry x="710" y="100" width="84" height="98" as="geometry" />
        </mxCell>
        <mxCell id="7yW3JbcLsS10eUoLvzNY-37" value="&lt;b&gt;Deterministic Behavior&lt;/b&gt;" style="text;html=1;align=center;verticalAlign=middle;whiteSpace=wrap;rounded=0;" parent="1" vertex="1">
          <mxGeometry x="194" y="198" width="60" height="30" as="geometry" />
        </mxCell>
        <mxCell id="7yW3JbcLsS10eUoLvzNY-38" value="&lt;b&gt;Stochastic Behavior&lt;/b&gt;" style="text;html=1;align=center;verticalAlign=middle;whiteSpace=wrap;rounded=0;" parent="1" vertex="1">
          <mxGeometry x="533.5" y="198" width="60" height="30" as="geometry" />
        </mxCell>
        <mxCell id="7yW3JbcLsS10eUoLvzNY-39" value="&lt;b&gt;The Spectrum of Experience&lt;/b&gt;" style="text;html=1;align=center;verticalAlign=middle;whiteSpace=wrap;rounded=0;" parent="1" vertex="1">
          <mxGeometry x="370" y="260" width="110" height="30" as="geometry" />
        </mxCell>
      </root>
    </mxGraphModel>
  </diagram>
</mxfile>
